<svg width="100" height="40" viewBox="0 0 100 40" fill="none" xmlns="http://www.w3.org/2000/svg">
<g clip-path="url(#clip0_1_148)">
<path d="M7.85623 4.12244L10.1935 10.5371H5.50918L7.85623 4.12244ZM6.59923 0.0964355L6.52067 0.317962L0 18.1268H2.73004L4.63518 12.9065H11.0576L12.9726 18.1268H15.7125L9.09359 0.0964355H6.59923Z" fill="black"/>
<path d="M22.0367 9.39086L25.2774 10.354C25.8406 10.5115 26.3432 10.8301 26.721 11.269C27.0867 11.7127 27.2814 12.2685 27.2709 12.839C27.2478 13.6267 26.9071 14.3733 26.3235 14.9149C25.7399 15.4566 24.9611 15.7492 24.1579 15.7284C23.5586 15.738 22.9692 15.5777 22.4605 15.2667C21.9519 14.9558 21.5455 14.5074 21.2904 13.9755L21.1529 13.6962L20.8583 13.8214L18.8058 14.6979L18.9433 14.9964C19.3352 15.808 19.9178 16.5168 20.6434 17.0644C21.369 17.6121 22.2168 17.983 23.1171 18.1466C24.0173 18.3102 24.9443 18.2619 25.8218 18.0056C26.6993 17.7493 27.5022 17.2923 28.1646 16.6723C28.6956 16.1754 29.1175 15.5774 29.4046 14.915C29.6916 14.2525 29.8378 13.5395 29.834 12.8197C29.832 11.7204 29.4702 10.6508 28.802 9.76828C28.1338 8.88575 27.1943 8.2369 26.1219 7.91723L23.058 6.95407C22.5673 6.84476 22.1279 6.57788 21.8094 6.19575C21.491 5.81363 21.3118 5.33815 21.3002 4.84475C21.303 4.51561 21.3771 4.19081 21.5176 3.89191C21.6581 3.59301 21.8618 3.32684 22.1153 3.11106C22.6815 2.62952 23.4085 2.36899 24.1579 2.37906C24.6935 2.35965 25.2244 2.48393 25.6933 2.73851C26.1623 2.99309 26.5516 3.36833 26.8192 3.8238L26.9567 4.08385L29.2448 3.12069L29.1073 2.82211C28.6403 1.93961 27.927 1.20564 27.0506 0.70593C26.1742 0.206219 25.1709 -0.0386039 24.1579 5.72845e-05C22.7048 -0.0385287 21.2944 0.483694 20.2298 1.45443C19.7427 1.90485 19.3546 2.44821 19.0895 3.05112C18.8244 3.65402 18.6877 4.30373 18.688 4.96033C18.6902 5.94485 19.0109 6.9033 19.6039 7.69772C20.1968 8.49215 21.0314 9.08159 21.9876 9.38123" fill="black"/>
<path d="M45.0947 0.0964355V7.80171H36.9635V0.0964355H34.4005V18.1268H36.9635V10.4215H45.0947V18.1268H47.6578V0.0964355H45.0947Z" fill="black"/>
<path d="M53.0001 0.0964355V0.414278V18.1268H66.2281V15.6322H55.5534V0.0964355H53.0001Z" fill="black"/>
<path d="M70.166 0.0964355V18.1268H70.49H83.4332V15.7574H72.7291V10.2963H81.5182V7.92692H72.7291V2.47544H83.4332V0.0964355H70.166Z" fill="black"/>
<path d="M96.9655 0.0964355L93.0374 6.01987L89.1191 0.0964355H86.0748L91.7706 8.72634V18.1268H94.3337V8.70708L100 0.0964355H96.9655Z" fill="black"/>
<path d="M5.42079 24.811C5.61481 24.605 5.8502 24.4406 6.11217 24.3282C6.37413 24.2157 6.65698 24.1577 6.94293 24.1577C7.22889 24.1577 7.51174 24.2157 7.7737 24.3282C8.03566 24.4406 8.27106 24.605 8.46508 24.811C8.87865 25.2403 9.10731 25.8096 9.1034 26.4003C9.11393 26.976 8.89147 27.5323 8.48471 27.9475C8.07795 28.3627 7.52004 28.6029 6.93311 28.6155H5.89216L5.32259 27.9317C4.95737 27.4926 4.76618 26.939 4.78423 26.3726C4.80227 25.8063 5.02834 25.2654 5.42079 24.8496V24.811ZM4.91013 31.322L9.23106 36.6001C8.38782 37.0336 7.45294 37.2678 6.50102 37.284C5.6106 37.2887 4.74493 36.9967 4.04595 36.4556C3.69373 36.1835 3.41096 35.8347 3.22005 35.4368C3.02914 35.039 2.93534 34.6029 2.94608 34.1633C2.93947 33.5439 3.12334 32.9369 3.47369 32.4215C3.82403 31.906 4.32461 31.5061 4.91013 31.2738V31.322ZM14.8581 32.4296V32.1118H12.2655V32.4296C12.2475 33.3572 11.9002 34.2496 11.2835 34.9531L7.78748 30.8886C8.75004 30.6888 9.63326 30.2206 10.3309 29.5402C10.7523 29.1301 11.0872 28.6425 11.3164 28.1054C11.5455 27.5683 11.6645 26.9921 11.6665 26.4099C11.677 25.1666 11.1848 23.9699 10.2976 23.0817C9.4105 22.1936 8.2007 21.6864 6.93311 21.6711C5.66984 21.6914 4.46608 22.2012 3.58473 23.0891C2.70337 23.9769 2.21605 25.1708 2.2292 26.4099C2.21102 27.4823 2.58756 28.5253 3.28979 29.3475C2.41818 29.8274 1.69292 30.5267 1.18884 31.3733C0.684765 32.2198 0.420137 33.183 0.422263 34.1633C0.409063 34.9394 0.569259 35.7088 0.891599 36.4176C1.21394 37.1265 1.69061 37.7575 2.28812 38.2664C3.46864 39.2417 4.96741 39.7682 6.51084 39.7496C8.04798 39.7208 9.55086 39.2992 10.871 38.5264L11.8531 39.7304H15.1625L12.8744 36.9661C14.0959 35.7673 14.7993 34.1529 14.8384 32.4585" fill="black"/>
<path d="M28.0467 23.9731C29.8771 23.962 31.6393 24.6534 32.9569 25.8994L33.1827 26.121L34.9897 24.3584L34.754 24.1369C33.4303 22.8472 31.7469 21.9709 29.916 21.6184C28.0852 21.2659 26.1889 21.4529 24.4664 22.156C22.7438 22.8591 21.2721 24.0468 20.2368 25.5692C19.2015 27.0915 18.649 28.8805 18.649 30.7104C18.649 32.5403 19.2015 34.3293 20.2368 35.8517C21.2721 37.3741 22.7438 38.5617 24.4664 39.2648C26.1889 39.9679 28.0852 40.155 29.916 39.8025C31.7469 39.4499 33.4303 38.5736 34.754 37.284L34.9897 37.0625L34.7638 36.8313L33.2122 35.2613L32.9962 35.4732L32.8587 35.5696C32.1995 35.9846 31.514 36.3578 30.8062 36.6868C29.9657 37.1235 29.0437 37.3889 28.0958 37.467C27.1846 37.469 26.2819 37.2947 25.4394 36.9543C24.5969 36.6138 23.831 36.1138 23.1857 35.4829C22.5429 34.8563 22.0327 34.1112 21.6846 33.2905C21.3365 32.4698 21.1573 31.5897 21.1573 30.7008C21.1573 29.8119 21.3365 28.9318 21.6846 28.1111C22.0327 27.2904 22.5429 26.5453 23.1857 25.9187C24.4897 24.6453 26.2557 23.9317 28.0958 23.9346" fill="black"/>
<path d="M48.1194 37.4959C47.2077 37.5011 46.3041 37.3283 45.4611 36.9877C44.6181 36.647 43.8527 36.1453 43.2093 35.5118C42.5664 34.8852 42.0563 34.1401 41.7082 33.3194C41.3601 32.4987 41.1808 31.6186 41.1808 30.7297C41.1808 29.8408 41.3601 28.9607 41.7082 28.14C42.0563 27.3193 42.5664 26.5742 43.2093 25.9476C44.5127 24.6725 46.2785 23.9564 48.1194 23.9564C49.9604 23.9564 51.7262 24.6725 53.0296 25.9476C54.0113 26.8907 54.6822 28.1007 54.9559 29.4215C55.2295 30.7423 55.0933 32.1132 54.5648 33.3572C54.0363 34.6013 53.1397 35.6615 51.9908 36.4009C50.8419 37.1404 49.4934 37.5251 48.1194 37.5055V37.4959ZM48.1194 21.4786C46.2563 21.4957 44.4401 22.0533 42.8996 23.0811C41.3591 24.1089 40.1633 25.561 39.4628 27.2543C38.7624 28.9476 38.5886 30.8064 38.9635 32.5964C39.3383 34.3864 40.245 36.0275 41.5693 37.3129C42.8936 38.5983 44.5761 39.4705 46.405 39.8196C48.2338 40.1687 50.1271 39.979 51.8462 39.2745C53.5653 38.57 55.0334 37.3822 56.0653 35.8607C57.0973 34.3393 57.647 32.5522 57.6451 30.7249C57.6412 29.5031 57.3916 28.2941 56.9104 27.1672C56.4293 26.0403 55.7261 25.0176 54.8411 24.1577C53.9562 23.2978 52.9069 22.6177 51.7535 22.1563C50.6 21.6949 49.3651 21.4613 48.1194 21.4689" fill="black"/>
<path d="M63.7631 24.7147C63.8323 24.716 63.9011 24.7038 63.9653 24.6787C64.0296 24.6536 64.0882 24.6162 64.1375 24.5687C64.1869 24.5212 64.2261 24.4644 64.2529 24.4019C64.2797 24.3393 64.2935 24.2721 64.2934 24.2043C64.2909 24.0671 64.2342 23.9362 64.1353 23.8392C64.0364 23.7422 63.903 23.6866 63.7631 23.6842H62.8499V24.7051L63.7631 24.7147ZM64.8728 26.304H64.3033L63.498 25.2156H62.8499V26.304H62.2606V23.193H63.7631C64.0385 23.1929 64.3028 23.2988 64.4993 23.488C64.6958 23.6771 64.8088 23.9343 64.8139 24.2043C64.8081 24.4199 64.7341 24.6284 64.6022 24.801C64.4702 24.9735 64.2868 25.1016 64.0774 25.1674L64.8728 26.304ZM63.4391 27.1034C63.918 27.0996 64.385 26.9568 64.7813 26.6931C65.1776 26.4294 65.4854 26.0565 65.666 25.6215C65.8466 25.1865 65.8918 24.7088 65.796 24.2486C65.7002 23.7884 65.4677 23.3663 65.1277 23.0355C64.7877 22.7047 64.3555 22.48 63.8855 22.3898C63.4155 22.2995 62.9288 22.3478 62.4867 22.5284C62.0446 22.709 61.667 23.0139 61.4013 23.4047C61.1356 23.7955 60.9938 24.2547 60.9938 24.7244C60.9938 25.0384 61.0572 25.3494 61.1803 25.6393C61.3034 25.9292 61.4839 26.1923 61.7112 26.4134C61.9385 26.6346 62.2082 26.8094 62.5048 26.9279C62.8014 27.0463 63.1189 27.1059 63.4391 27.1034V27.1034ZM63.4391 21.7771C64.0326 21.7809 64.6116 21.957 65.1032 22.2832C65.5948 22.6093 65.9769 23.0709 66.2013 23.6098C66.4257 24.1487 66.4824 24.7406 66.3643 25.3111C66.2461 25.8815 65.9584 26.4049 65.5374 26.8151C65.1163 27.2254 64.5809 27.5042 63.9985 27.6163C63.4161 27.7285 62.8129 27.669 62.265 27.4454C61.717 27.2218 61.2489 26.844 60.9195 26.3598C60.5902 25.8755 60.4144 25.3065 60.4144 24.7244C60.4157 24.3361 60.495 23.9518 60.6477 23.5936C60.8004 23.2353 61.0235 22.91 61.3044 22.6364C61.5853 22.3627 61.9183 22.1459 62.2846 21.9985C62.6509 21.8511 63.0432 21.7758 63.4391 21.7771" fill="black"/>
</g>
<defs>
<clipPath id="clip0_1_148">
<rect width="100" height="40" fill="white"/>
</clipPath>
</defs>
</svg>
